<?xml version="1.0" encoding="utf-8"?>
<!-- Generator: Adobe Illustrator 22.0.0, SVG Export Plug-In . SVG Version: 6.00 Build 0)  -->
<svg version="1.1" id="Layer_1" xmlns="http://www.w3.org/2000/svg" xmlns:xlink="http://www.w3.org/1999/xlink" x="0px" y="0px"
	 viewBox="0 0 500 500" style="enable-background:new 0 0 500 500;" xml:space="preserve">
<style type="text/css">
	.st0{display:none;fill:#070808;}
	.st1{fill:#FFFFFF;stroke:#000000;stroke-width:16.9715;stroke-linecap:round;stroke-miterlimit:10;}
	.st2{fill:none;stroke:#000000;stroke-width:18;stroke-linecap:round;stroke-miterlimit:10;}
	.st3{fill:none;stroke:#000000;stroke-width:36.934;stroke-linecap:round;stroke-miterlimit:10;}
	.st4{fill:none;stroke:#000000;stroke-width:23.3108;stroke-linecap:round;stroke-miterlimit:10;}
	.st5{fill:#070808;}
	.st6{fill:none;stroke:#FDFEFE;stroke-width:9;stroke-linecap:round;stroke-miterlimit:10;}
	.st7{fill:none;stroke:#F9F9FA;stroke-width:20;stroke-linecap:round;stroke-miterlimit:10;}
</style>
<rect class="st0" width="500" height="500"/>
<path class="st1" d="M1181.1,179.5l0,179c0,24.9-26.8,37.4-42.4,19.8L969,187.4c-14.1-15.9-38.2-4.6-38.2,17.8l0,163"/>
<path class="st2" d="M924.7-365v-77.5c0-31.9,40.7-45.3,59.7-19.6l12.3,16.7c18.8,25.5,59.3,12.2,59.3-19.5V-543"/>
<path class="st2" d="M915-546.3h98.9h0c19.7,3.2,21.1,31.1,1.8,36.2l-1.8,0.5c-0.7,0.7-98.9,0-98.9,0"/>
<line class="st2" x1="954.7" y1="-546.3" x2="954.7" y2="-513.7"/>
<path class="st2" d="M1066.1-365.8h-98.9h0c-19.7-3.2-21.1-31.1-1.8-36.2l1.8-0.5c0.7-0.7,98.9,0,98.9,0"/>
<line class="st2" x1="1026.4" y1="-365.8" x2="1026.4" y2="-398.5"/>
<path class="st2" d="M655.7-365v-77.5c0-31.9,40.7-45.3,59.7-19.6l12.3,16.7c18.8,25.5,59.3,12.2,59.3-19.5V-543"/>
<path class="st2" d="M655.7-124.1v-77.5c0-31.9,40.7-45.3,59.7-19.6l12.3,16.7C746.5-179,787-192.3,787-224v-78.1"/>
<path class="st2" d="M769.6-367h-59.4c-9.6,0-17.4-7.8-17.4-17.4v0c0-9.6,7.8-17.4,17.4-17.4h59.4c9.6,0,17.4,7.8,17.4,17.4v0
	C787-374.8,779.2-367,769.6-367z"/>
<path class="st2" d="M731.5-504.7h-59.4c-9.6,0-17.4-7.8-17.4-17.4l0,0c0-9.6,7.8-17.4,17.4-17.4h59.4c9.6,0,17.4,7.8,17.4,17.4l0,0
	C748.9-512.5,741.1-504.7,731.5-504.7z"/>
<line class="st2" x1="683.8" y1="-159" x2="710.8" y2="-159"/>
<line class="st2" x1="734.4" y1="-269" x2="761.4" y2="-269"/>
<path class="st2" d="M915-124.1v-77.5c0-31.9,40.7-45.3,59.7-19.6l12.3,16.7c18.8,25.5,59.3,12.2,59.3-19.5v-78.1"/>
<line class="st2" x1="944.1" y1="-159" x2="971.1" y2="-159"/>
<g>
	<path class="st3" d="M226.5-341.1l13,17.6c38.6,52.4,121.7,25,121.7-40.1v-160.2"/>
	<path class="st3" d="M30.2-240.6v-159c0-65.5,83.6-93,122.5-40.3l12.3,16.6"/>
	<g>
		<path d="M195.6-402c-10.2,0-18.5,8.3-18.5,18.5c0,10.2,8.3,18.5,18.5,18.5c10.2,0,18.5-8.3,18.5-18.5
			C214.1-393.7,205.8-402,195.6-402L195.6-402z"/>
	</g>
	<path class="st3" d="M79.2-320.6"/>
</g>
<g>
	<path class="st4" d="M272.5,280l9.5,12.9c28.3,38.3,89,18.3,89-29.3V146.5"/>
	<path class="st4" d="M129,353.5V237.3c0-47.9,61.1-68,89.5-29.5l54,72.2"/>
	<path class="st4" d="M164.8,295"/>
</g>
<rect x="-1201.1" y="-444.5" class="st5" width="500" height="500"/>
<line class="st6" x1="-1022.2" y1="-121.3" x2="-844" y2="-121.3"/>
<g>
	<path class="st7" d="M-956-199l10.2,13.8c30.3,41.1,95.4,19.6,95.4-31.4v-125.6"/>
	<path class="st7" d="M-1055.9-48v-124.6c0-51.3,65.5-72.9,96-31.6l3.9,5.2"/>
	<path class="st7" d="M-1017.5-110.7"/>
</g>
<g>
	<path d="M193.1,259.8c-11.6,0-21,9.4-21,21s9.4,21,21,21s21-9.4,21-21S204.7,259.8,193.1,259.8L193.1,259.8z"/>
</g>
<g>
	<path d="M250,15c31.7,0,62.5,6.2,91.5,18.5c28,11.8,53.1,28.8,74.7,50.4s38.5,46.7,50.4,74.7c12.3,29,18.5,59.7,18.5,91.5
		s-6.2,62.5-18.5,91.5c-11.8,28-28.8,53.1-50.4,74.7s-46.7,38.5-74.7,50.4c-29,12.3-59.7,18.5-91.5,18.5s-62.5-6.2-91.5-18.5
		c-28-11.8-53.1-28.8-74.7-50.4s-38.5-46.7-50.4-74.7C21.2,312.5,15,281.7,15,250s6.2-62.5,18.5-91.5c11.8-28,28.8-53.1,50.4-74.7
		s46.7-38.5,74.7-50.4C187.5,21.2,218.3,15,250,15 M250,0C111.9,0,0,111.9,0,250s111.9,250,250,250s250-111.9,250-250S388.1,0,250,0
		L250,0z"/>
</g>
</svg>
